<svg width="14" height="14" viewBox="0 0 14 14" fill="none" xmlns="http://www.w3.org/2000/svg">
<path d="M10.5247 4.93178e-06C11.1645 4.93178e-06 11.7437 0.17652 12.2622 0.529551C12.7918 0.882581 13.211 1.36248 13.5199 1.96925C13.8398 2.57602 13.9998 3.2545 13.9998 4.00469C13.9998 4.6225 13.8895 5.19617 13.6688 5.72572C13.4592 6.25526 13.1889 6.7462 12.858 7.19852C12.527 7.6398 12.174 8.048 11.7989 8.42309C11.4348 8.79819 11.0928 9.13467 10.7729 9.43254C10.2764 9.90692 9.77448 10.4254 9.267 10.9881C8.77055 11.5397 8.32375 12.0747 7.92659 12.5933C7.54046 13.1007 7.24259 13.52 7.03298 13.8509C7.01092 13.8951 6.98885 13.8951 6.96679 13.8509C6.76821 13.52 6.47034 13.1007 6.07318 12.5933C5.67602 12.0858 5.22921 11.5507 4.73277 10.9881C4.23632 10.4254 3.73435 9.90692 3.22687 9.43254C2.91797 9.13467 2.57597 8.79819 2.20088 8.42309C1.82578 8.048 1.47275 7.6398 1.14178 7.19852C0.810818 6.7462 0.535013 6.25526 0.314369 5.72572C0.104757 5.19617 -4.84547e-05 4.6225 -4.84547e-05 4.00469C-4.84547e-05 3.2545 0.154402 2.57602 0.463304 1.96925C0.783238 1.36248 1.20798 0.882581 1.73752 0.529551C2.26707 0.17652 2.84626 4.93178e-06 3.4751 4.93178e-06C3.90535 4.93178e-06 4.34112 0.0772303 4.78241 0.231681C5.2237 0.386132 5.63189 0.645389 6.00699 1.00945C6.39311 1.36248 6.71305 1.8479 6.96679 2.4657C6.98885 2.5319 7.01092 2.5319 7.03298 2.4657C7.28672 1.8479 7.60114 1.36248 7.97623 1.00945C8.36236 0.645389 8.77607 0.386132 9.21736 0.231681C9.65864 0.0772303 10.0944 4.93178e-06 10.5247 4.93178e-06ZM10.5247 0.595744C9.80758 0.595744 9.20081 0.794324 8.70436 1.19148C8.20791 1.57761 7.78869 2.18438 7.44669 3.0118C7.39153 3.15521 7.32533 3.26554 7.24811 3.34276C7.17088 3.40896 7.08814 3.44205 6.99988 3.44205C6.90059 3.44205 6.81785 3.40896 6.75166 3.34276C6.68547 3.26554 6.61927 3.15521 6.55308 3.0118C6.21108 2.18438 5.79186 1.57761 5.29541 1.19148C4.79896 0.794324 4.19219 0.595744 3.4751 0.595744C2.95658 0.595744 2.47668 0.744679 2.03539 1.04255C1.60514 1.34042 1.25762 1.74861 0.99285 2.26712C0.739109 2.7746 0.612239 3.35379 0.612239 4.00469C0.612239 4.53424 0.711528 5.04172 0.910108 5.52714C1.11972 6.00152 1.37898 6.45384 1.68788 6.8841C2.00781 7.30332 2.33878 7.68945 2.68078 8.04248C3.03381 8.39551 3.35926 8.71544 3.65713 9.00228C4.13151 9.44357 4.58383 9.90141 5.01409 10.3758C5.44434 10.8391 5.83047 11.2804 6.17247 11.6997C6.51447 12.1189 6.77924 12.4885 6.96679 12.8084C6.98885 12.8525 7.01092 12.8525 7.03298 12.8084C7.23156 12.4885 7.50185 12.1189 7.84385 11.6997C8.18584 11.2694 8.57197 10.8226 9.00223 10.3592C9.43248 9.89589 9.8848 9.44357 10.3592 9.00228C10.646 8.71544 10.9604 8.39551 11.3024 8.04248C11.6555 7.68945 11.9864 7.30332 12.2953 6.8841C12.6153 6.46487 12.8745 6.01255 13.0731 5.52714C13.2827 5.04172 13.3875 4.53424 13.3875 4.00469C13.3875 3.35379 13.2551 2.7746 12.9904 2.26712C12.7366 1.74861 12.3891 1.34042 11.9478 1.04255C11.5176 0.744679 11.0432 0.595744 10.5247 0.595744Z" fill="#CC332B"/>
</svg>
