<svg width="27" height="27" viewBox="0 0 27 27" fill="none" xmlns="http://www.w3.org/2000/svg">
<path d="M13.5 26.9988C11.646 26.9988 9.8983 26.6512 8.25677 25.9559C6.63456 25.2607 5.19581 24.2951 3.94052 23.0591C2.70455 21.8038 1.73894 20.3651 1.04371 18.7429C0.348474 17.1013 0.000856811 15.3536 0.000856811 13.4996C0.000856811 11.6457 0.348474 9.90759 1.04371 8.28537C1.73894 6.64385 2.70455 5.2051 3.94052 3.96912C5.19581 2.71384 6.63456 1.73858 8.25677 1.04334C9.8983 0.34811 11.646 0.000492584 13.5 0.000492584C15.354 0.000492584 17.092 0.34811 18.7143 1.04334C20.3558 1.73858 21.7945 2.71384 23.0305 3.96912C24.2858 5.2051 25.2611 6.64385 25.9563 8.28537C26.6515 9.90759 26.9991 11.6457 26.9991 13.4996C26.9991 15.3729 26.6419 17.1303 25.9273 18.7718C25.2321 20.394 24.2568 21.8231 23.0015 23.0591C21.7656 24.2951 20.3365 25.2607 18.7143 25.9559C17.092 26.6512 15.354 26.9988 13.5 26.9988ZM13.5 26.0718C15.2381 26.0718 16.8603 25.7435 18.3666 25.0869C19.8923 24.4496 21.2345 23.5516 22.3932 22.3928C23.5519 21.2341 24.4499 19.9016 25.0872 18.3952C25.7439 16.8696 26.0722 15.2377 26.0722 13.4996C26.0722 11.7615 25.7439 10.1393 25.0872 8.63299C24.4499 7.10734 23.5519 5.76515 22.3932 4.60642C21.2345 3.4477 19.8923 2.54969 18.3666 1.91239C16.8603 1.25578 15.2381 0.927473 13.5 0.927473C11.7426 0.927473 10.1011 1.25578 8.57542 1.91239C7.06908 2.569 5.73654 3.47667 4.57782 4.63539C3.43841 5.79412 2.5404 7.1363 1.88378 8.66196C1.24649 10.1683 0.927837 11.7809 0.927837 13.4996C0.927837 15.2377 1.24649 16.8696 1.88378 18.3952C2.5404 19.9016 3.44806 21.2341 4.60679 22.3928C5.76551 23.5516 7.09805 24.4496 8.60439 25.0869C10.13 25.7435 11.7619 26.0718 13.5 26.0718ZM12.4861 20.1623V9.73378H14.5429V20.1623H12.4861ZM13.529 7.73498C13.1427 7.73498 12.8241 7.61911 12.573 7.38736C12.322 7.13631 12.1964 6.83697 12.1964 6.48935C12.1964 6.10311 12.322 5.79412 12.573 5.56237C12.8241 5.31131 13.1427 5.18578 13.529 5.18578C13.9538 5.18578 14.2918 5.31131 14.5429 5.56237C14.7939 5.79412 14.9194 6.10311 14.9194 6.48935C14.9194 6.83697 14.7939 7.13631 14.5429 7.38736C14.2918 7.61911 13.9538 7.73498 13.529 7.73498Z" fill="#E68705"/>
</svg>
