<svg width="76" height="76" viewBox="0 0 76 76" fill="none" xmlns="http://www.w3.org/2000/svg">
<path d="M42 31.871H14C11.7909 31.871 10 34.0662 10 36.7742V62.5161C10 65.2241 11.7909 67.4194 14 67.4194H42C44.2091 67.4194 46 65.2241 46 62.5161V36.7742C46 34.0662 44.2091 31.871 42 31.871Z" stroke="#D39A21" stroke-width="1.5"/>
<path d="M18 31.871V22.0645C18 12.2581 24 7.35483 28 7.35483C33 7.35483 39 12.2581 39 22.0645V31.871M28 46.5806V55.1613" stroke="#D39A21" stroke-width="1.5"/>
<path d="M51 36.7742C47 47.8064 45 58.8387 44 71.0968M46 53.9355C52 52.7097 57 55.1613 63 61.2903M55 17.1613C67 9.80645 73 25.7419 67 36.7742C62 46.5806 53 41.6774 50 34.3226C47 25.7419 50 19.6129 55 17.1613Z" stroke="#D39A21" stroke-linecap="round"/>
</svg>
