<svg width="40" height="11" viewBox="0 0 40 11" fill="none" xmlns="http://www.w3.org/2000/svg">
<path d="M3.13547e-05 5.63485V4.70857H5.44743V5.63485H3.13547e-05ZM8.90237 9.41715C8.62301 9.41715 8.33263 9.37305 8.03122 9.28483C7.72982 9.20396 7.44311 9.09002 7.17111 8.94299C6.90646 8.79596 6.66754 8.62688 6.45434 8.43574L7.03878 7.57562C7.31814 7.80352 7.61219 7.99098 7.92095 8.13801C8.22971 8.28504 8.55685 8.35855 8.90237 8.35855C9.3361 8.35855 9.65589 8.25931 9.86173 8.06082C10.0749 7.85498 10.1815 7.57562 10.1815 7.22276C10.1815 6.97281 10.119 6.75594 9.99405 6.57216C9.86908 6.38837 9.70367 6.23031 9.49783 6.09799C9.29934 5.95831 9.0788 5.82966 8.8362 5.71204C8.60096 5.58707 8.36204 5.45842 8.11944 5.32609C7.87684 5.19377 7.65263 5.04306 7.44679 4.87398C7.2483 4.7049 7.08657 4.50273 6.96159 4.26749C6.83662 4.02489 6.77413 3.73451 6.77413 3.39634C6.77413 2.95526 6.8697 2.57299 7.06084 2.24952C7.25932 1.91871 7.53133 1.66509 7.87684 1.48865C8.22971 1.30487 8.63772 1.21297 9.10085 1.21297C9.6081 1.21297 10.0308 1.30487 10.369 1.48865C10.7071 1.67244 11.0049 1.90768 11.2622 2.19439L10.6116 2.93321C10.3837 2.71266 10.1595 2.54726 9.93892 2.43698C9.72572 2.31936 9.46107 2.26055 9.14496 2.26055C8.79209 2.26055 8.51274 2.35612 8.3069 2.54726C8.10106 2.73104 7.99814 2.99202 7.99814 3.33018C7.99814 3.56543 8.06063 3.76391 8.1856 3.92565C8.31058 4.08003 8.47231 4.2197 8.6708 4.34468C8.87664 4.4623 9.10085 4.57992 9.34345 4.69754C9.58605 4.80782 9.82864 4.92911 10.0712 5.06144C10.3138 5.19377 10.5344 5.35182 10.7329 5.53561C10.9314 5.71204 11.0931 5.93258 11.2181 6.19723C11.343 6.45453 11.4055 6.76697 11.4055 7.13454C11.4055 7.58298 11.3063 7.97995 11.1078 8.32547C10.9093 8.66363 10.6226 8.93196 10.2477 9.13045C9.8801 9.32159 9.43167 9.41715 8.90237 9.41715ZM8.60463 10.6191V8.93196H9.4868V10.6191H8.60463ZM8.60463 1.65406V-1.01578e-05H9.4868V1.65406H8.60463ZM12.644 9.26277V8.52396C13.4453 7.81087 14.1143 7.16027 14.6509 6.57216C15.1876 5.97669 15.5882 5.42533 15.8529 4.91809C16.1249 4.41084 16.2609 3.93667 16.2609 3.49559C16.2609 3.20153 16.2094 2.94423 16.1065 2.72369C16.011 2.4958 15.8603 2.32304 15.6544 2.20541C15.4559 2.08044 15.2023 2.01795 14.8935 2.01795C14.5774 2.01795 14.287 2.10617 14.0224 2.2826C13.7577 2.45169 13.5151 2.6612 13.2946 2.91115L12.5778 2.20541C12.9234 1.82314 13.2873 1.52541 13.6695 1.31222C14.0592 1.09903 14.5223 0.992431 15.0589 0.992431C15.5515 0.992431 15.9815 1.09535 16.3491 1.30119C16.7167 1.49968 16.9997 1.78271 17.1982 2.15028C17.404 2.5105 17.507 2.93688 17.507 3.42943C17.507 3.95138 17.3783 4.48068 17.121 5.01733C16.8637 5.54663 16.5109 6.08329 16.0624 6.62729C15.614 7.16394 15.1031 7.70795 14.5296 8.25931C14.7428 8.23725 14.9671 8.21887 15.2023 8.20417C15.4449 8.18212 15.6618 8.17109 15.8529 8.17109H17.8929V9.26277H12.644ZM21.6015 9.41715C21.0942 9.41715 20.6421 9.32526 20.2451 9.14148C19.8482 8.95034 19.5321 8.69304 19.2968 8.36958C19.0689 8.03876 18.955 7.66384 18.955 7.24481C18.955 6.88459 19.0248 6.5648 19.1645 6.28545C19.3042 6.0061 19.4843 5.76718 19.7048 5.56869C19.9254 5.36285 20.1569 5.19377 20.3995 5.06144V5.0063C20.1055 4.79311 19.8518 4.53214 19.6386 4.22338C19.4255 3.90727 19.3189 3.53602 19.3189 3.10964C19.3189 2.69061 19.4181 2.32304 19.6166 2.00693C19.8224 1.69082 20.0981 1.44822 20.4436 1.27914C20.7965 1.1027 21.1971 1.01449 21.6456 1.01449C22.1161 1.01449 22.5204 1.10638 22.8586 1.29016C23.1967 1.47395 23.4577 1.72757 23.6415 2.05103C23.8326 2.36715 23.9282 2.73839 23.9282 3.16477C23.9282 3.43678 23.8731 3.69408 23.7628 3.93667C23.6525 4.17927 23.5165 4.39981 23.3548 4.5983C23.2004 4.78944 23.035 4.94749 22.8586 5.07247V5.1276C23.1085 5.25993 23.3364 5.42533 23.5423 5.62382C23.7481 5.81496 23.9135 6.04653 24.0385 6.31853C24.1634 6.59053 24.2259 6.91032 24.2259 7.27789C24.2259 7.67487 24.1157 8.03509 23.8951 8.35855C23.6819 8.68201 23.3768 8.93931 22.9799 9.13045C22.5902 9.32159 22.1308 9.41715 21.6015 9.41715ZM22.1418 4.75268C22.3771 4.52479 22.5535 4.28587 22.6711 4.03592C22.7961 3.77862 22.8586 3.51029 22.8586 3.23094C22.8586 2.98834 22.8108 2.7678 22.7152 2.56931C22.6196 2.37082 22.4763 2.21644 22.2852 2.10617C22.1014 1.98855 21.8772 1.92974 21.6125 1.92974C21.2817 1.92974 21.006 2.03633 20.7855 2.24952C20.5649 2.45536 20.4547 2.74207 20.4547 3.10964C20.4547 3.4037 20.5318 3.64997 20.6862 3.84846C20.8406 4.04694 21.0464 4.21603 21.3037 4.3557C21.561 4.49538 21.8404 4.62771 22.1418 4.75268ZM21.6346 8.49088C21.9066 8.49088 22.1455 8.43942 22.3513 8.3365C22.5645 8.23358 22.7299 8.09022 22.8475 7.90644C22.9652 7.7153 23.024 7.49108 23.024 7.23378C23.024 6.99119 22.9725 6.78167 22.8696 6.60524C22.7667 6.42145 22.6233 6.2634 22.4395 6.13107C22.2631 5.99875 22.0536 5.87745 21.811 5.76718C21.5684 5.64955 21.3074 5.53561 21.0281 5.42533C20.7487 5.62382 20.5208 5.8701 20.3444 6.16415C20.168 6.45086 20.0797 6.76697 20.0797 7.11248C20.0797 7.38449 20.1459 7.62341 20.2782 7.82925C20.4179 8.03509 20.6054 8.19682 20.8406 8.31444C21.0759 8.43206 21.3405 8.49088 21.6346 8.49088ZM26.3797 9.41715C26.1444 9.41715 25.9423 9.33261 25.7732 9.16353C25.6114 8.9871 25.5306 8.77023 25.5306 8.51293C25.5306 8.24828 25.6114 8.03509 25.7732 7.87336C25.9423 7.70427 26.1444 7.61973 26.3797 7.61973C26.6223 7.61973 26.8244 7.70427 26.9862 7.87336C27.1552 8.03509 27.2398 8.24828 27.2398 8.51293C27.2398 8.77023 27.1552 8.9871 26.9862 9.16353C26.8244 9.33261 26.6223 9.41715 26.3797 9.41715ZM30.9763 9.41715C30.55 9.41715 30.1714 9.36569 29.8405 9.26277C29.5171 9.15985 29.2304 9.02385 28.9804 8.85477C28.7305 8.67834 28.5136 8.49088 28.3298 8.29239L28.9474 7.47638C29.1899 7.71163 29.4656 7.91746 29.7744 8.0939C30.0831 8.27033 30.447 8.35855 30.8661 8.35855C31.1748 8.35855 31.4432 8.30709 31.6711 8.20417C31.8989 8.0939 32.0754 7.93952 32.2004 7.74103C32.3327 7.54254 32.3988 7.29995 32.3988 7.01324C32.3988 6.71918 32.3253 6.46188 32.1783 6.24134C32.0386 6.01345 31.7923 5.84069 31.4395 5.72307C31.094 5.59809 30.6161 5.53561 30.006 5.53561V4.58727C30.5426 4.58727 30.9616 4.52846 31.263 4.41084C31.5718 4.28587 31.7923 4.11678 31.9247 3.90359C32.0644 3.6904 32.1342 3.4478 32.1342 3.1758C32.1342 2.82293 32.0239 2.54358 31.8034 2.33774C31.5828 2.12455 31.2777 2.01795 30.8881 2.01795C30.5794 2.01795 30.289 2.08779 30.017 2.22747C29.7523 2.35979 29.5024 2.5399 29.2671 2.7678L28.6055 1.97385C28.929 1.67979 29.2818 1.44454 29.6641 1.26811C30.0464 1.08432 30.4691 0.992431 30.9322 0.992431C31.4174 0.992431 31.8475 1.07697 32.2224 1.24605C32.5973 1.40779 32.8914 1.64303 33.1046 1.95179C33.3178 2.26055 33.4244 2.63915 33.4244 3.08758C33.4244 3.55072 33.2957 3.94402 33.0384 4.26749C32.7885 4.59095 32.4503 4.83355 32.0239 4.99528V5.03939C32.3327 5.12025 32.612 5.25258 32.862 5.43636C33.1193 5.6128 33.3214 5.84069 33.4685 6.12004C33.6155 6.3994 33.689 6.71918 33.689 7.0794C33.689 7.5646 33.564 7.98363 33.3141 8.3365C33.0715 8.68201 32.7444 8.95034 32.3327 9.14148C31.921 9.32526 31.4689 9.41715 30.9763 9.41715ZM37.2652 9.41715C36.8462 9.41715 36.4713 9.36569 36.1405 9.26277C35.8097 9.15985 35.5193 9.02385 35.2693 8.85477C35.0194 8.68569 34.7988 8.50925 34.6077 8.32547L35.2142 7.49843C35.3686 7.65281 35.5377 7.79617 35.7215 7.92849C35.9052 8.05347 36.1111 8.15639 36.339 8.23725C36.5742 8.31812 36.8352 8.35855 37.1219 8.35855C37.4233 8.35855 37.6953 8.29239 37.9379 8.16006C38.1805 8.02038 38.3716 7.8219 38.5113 7.5646C38.651 7.29995 38.7208 6.98751 38.7208 6.62729C38.7208 6.09799 38.5775 5.68631 38.2908 5.39225C38.0114 5.0982 37.6402 4.95117 37.177 4.95117C36.9197 4.95117 36.6992 4.98793 36.5154 5.06144C36.3316 5.13495 36.1221 5.2489 35.8869 5.40328L35.2583 4.99528L35.5009 1.13578H39.614V2.21644H36.6036L36.4162 4.28954C36.5926 4.20132 36.769 4.13516 36.9455 4.09105C37.1219 4.03959 37.3167 4.01386 37.5299 4.01386C37.9857 4.01386 38.401 4.10576 38.776 4.28954C39.1509 4.47333 39.4486 4.75636 39.6692 5.13863C39.8897 5.51355 40 5.99875 40 6.59421C40 7.18967 39.8713 7.7006 39.614 8.12698C39.3567 8.54601 39.0186 8.8658 38.5995 9.08634C38.1879 9.30688 37.7431 9.41715 37.2652 9.41715Z" fill="#B82924"/>
</svg>
